<svg xmlns="http://www.w3.org/2000/svg" viewBox="0 0 32 32" fill="none">
  <!-- Background circle with charcoal color -->
  <circle cx="16" cy="16" r="15" fill="#292D32"/>

  <!-- Elegant signature "P" -->
  <path
    d="M8 28 Q6 26 7 22 Q8 18 10 14 Q12 10 14 8 Q16 6 18 7 Q22 8 22 5 Q22 3 18 4 Q14 5 10 10 Q6 16 6 22 Q6 26 8 28"
    stroke="#FAFAFA"
    stroke-width="1.5"
    stroke-linecap="round"
    stroke-linejoin="round"
    fill="none"
  />
  <!-- Upper loop of P -->
  <path
    d="M12 12 Q16 10 19 11 Q22 12 22 15 Q22 18 18 19 Q14 20 12 18"
    stroke="#FAFAFA"
    stroke-width="1.5"
    stroke-linecap="round"
    fill="none"
  />
  <!-- Dot accent -->
  <circle cx="24" cy="22" r="1.5" fill="#FAFAFA"/>
</svg>
